<?xml version="1.0" encoding="utf-8"?>
<!-- Generator: Adobe Illustrator 18.0.0, SVG Export Plug-In . SVG Version: 6.00 Build 0)  -->
<!DOCTYPE svg PUBLIC "-//W3C//DTD SVG 1.1//EN" "http://www.w3.org/Graphics/SVG/1.1/DTD/svg11.dtd">
<svg version="1.1" id="Capa_1" xmlns="http://www.w3.org/2000/svg" xmlns:xlink="http://www.w3.org/1999/xlink" x="0px" y="0px"
	 viewBox="0 0 60.3 60.3" enable-background="new 0 0 60.3 60.3" xml:space="preserve">
<g>
	<g>
		<g>
			<path fill="#4E605E" d="M29,48.3c-16.5,0-28.3-17-28.8-17.8c-0.2-0.4-0.2-0.8,0-1.2c0.6-0.7,13.9-17.4,29.9-17.4
				c18,0,29.5,16.8,30,17.5c0.2,0.3,0.2,0.8,0,1.1c-0.5,0.7-11.8,16.8-29.9,17.7C29.8,48.3,29.4,48.3,29,48.3z M2.3,30
				c2.3,3.1,13.6,17,27.8,16.3C45.3,45.5,55.8,32.8,58,30c-2.2-2.9-12.8-16-27.9-16C16.7,13.9,4.8,27.1,2.3,30z"/>
		</g>
		<g>
			<path fill="#4E605E" d="M30.1,37.1c-3.9,0-7-3.1-7-7s3.1-7,7-7s7,3.1,7,7C37.1,34,34,37.1,30.1,37.1z"/>
		</g>
		<g>
			<path fill="#4E605E" d="M30.1,42.6c-6.9,0-12.5-5.6-12.5-12.5c0-6.9,5.6-12.5,12.5-12.5s12.5,5.6,12.5,12.5
				C42.6,37,37,42.6,30.1,42.6z M30.1,19.6c-5.8,0-10.5,4.7-10.5,10.5c0,5.8,4.7,10.5,10.5,10.5s10.5-4.7,10.5-10.5
				C40.6,24.3,35.9,19.6,30.1,19.6z"/>
		</g>
	</g>
</g>
</svg>
