<?xml version="1.0" encoding="utf-8"?>
<!-- Generator: Adobe Illustrator 18.0.0, SVG Export Plug-In . SVG Version: 6.00 Build 0)  -->
<!DOCTYPE svg PUBLIC "-//W3C//DTD SVG 1.1//EN" "http://www.w3.org/Graphics/SVG/1.1/DTD/svg11.dtd">
<svg version="1.1" id="Capa_1" xmlns="http://www.w3.org/2000/svg" xmlns:xlink="http://www.w3.org/1999/xlink" x="0px" y="0px"
	 viewBox="0 0 491.3 491.3" enable-background="new 0 0 491.3 491.3" xml:space="preserve">
<g>
	<g id="Capa_1_4_">
		<g>
			<path fill="#FFFFFF" d="M57.3,324.6c11.1,5.1,22.3,9.9,30.9,19.2c0.9,0.9,1.7,1.8,2.6,2.7c0,0,0,0,0.1,0.1
				c13.3,11.9,24.4,25.9,36.8,39c12.6,13.4,28.6,16.9,45.6,13c14.5-3.3,28.5-8.9,42.7-13.5c0-0.5-0.1-0.9-0.1-1.4
				c-10.5-4.3-21.2-8-31.3-13c-26.1-12.9-50.2-29.2-71.2-49.4c-9.4-9.1-18.2-18.9-26.2-29.3C78.8,281.4,72.2,270,64.8,259
				c-2-3-4.1-6.6-8.8-5.1c-13.5,4.5-26.9,9.2-38.7,17.4c-6.5,4.6-13,9-16.7,16.4c0,0,0,0,0,0c-0.7,2.4-0.8,5,0.2,7.3
				c0.8,2,2.3,3.7,4,5.1c0,0,0,0,0,0c0.9,0.7,1.9,1.3,2.9,1.8c5.8,2.9,11.6,5.8,17.4,8.7c0,0,0,0,0.1,0c0.4,0.2,0.9,0.3,1.3,0.5
				c10.3,4,20.6,8.2,30.6,13.1C57.1,324.4,57.2,324.5,57.3,324.6z"/>
			<path fill="#FFFFFF" d="M73.8,177.9c0.7,0.4,1.6,0.7,2.4,0.8c7.1,0.7,14.2,1.1,21.3,2.1c6.4,0.9,12.7,2.2,19,3.5
				c4.4,0.9,8.7,2.3,13.7,3.6c-0.2-1.8-0.1-2.6-0.4-3.3c-6.6-19-14.5-37.8-18.9-57.5c-1.2-5.2-2-10.9,0.2-15.8
				c2.8-6.2,10.1-9.3,16.9-9.3c6.6,0,12.3,4.6,18.7,4.4c6.5-0.2,12.4-5.4,15.6-10.6c4.3-7.1,5.8-15.5,9.4-23
				c4.6-9.6,12.8-17.3,22.5-21.8c12.3-5.7,20-3.1,32.5-2.1c4.9,0.4,10.1-0.4,14.1-3.3c17-12.1-4.9-20.9-14.5-24.6
				c-16.2-6.1-34.7-5.5-51-0.1c-21.9,7.3-40.3,22.4-56,39.2S90,95.8,74.6,113c-5.8,6.4-11.9,12.7-15.8,20.4
				C50.4,149.4,57.6,169.9,73.8,177.9z"/>
			<path fill="#FFFFFF" d="M214.7,64.9c-11.6,0.1-22.3,4.1-29.1,13.4C178,88.9,175.2,92,186,101.7c3.8,3.4,8.2,6.3,12.3,9.4
				c-0.1,0.3-0.2,0.5-0.3,0.8c-8.1-1.8-16.1-3.6-24.6-5.5c-1.9,2.3-4.2,5.1-6.9,8.4c16.3,4.2,30.8,10.7,48.1,13.3
				c-1.9-4.5-2.9-7.6-4.3-10.5c-4.2-8.7-5.5-17.5,1.2-25.5c3-3.6,6.7-7,10.7-9.3c8.3-4.7,17.1-8.5,26.3-13c-1.7-0.9-3.2-1.8-4.8-2.4
				C234.2,63.6,224.4,64.8,214.7,64.9z"/>
			<path fill="#FFFFFF" d="M303.8,76.1C303.8,76.1,303.8,76,303.8,76.1c-4.8,0-9.6,0.8-14.5,0.9c-5.7,0.1-11.5-0.3-17.2-0.1
				c-16,0.8-35.2,6.7-47.6,17.1c-3.4,2.8-6.2,6.6-7.1,10.9c-1.2,5.6,1.2,11.6,5.3,15.7c8.6,8.5,22.6,8.7,33.8,6.9
				c3.4-0.5,7-1.5,9.1-4.2c2.4-3,2.3-7.7,0-10.8c-2.3-3.1-6.4-4.6-10.3-4.2c-6.3,0.7-9.4,5.5-12.7,10.3c-0.9-2.1-0.6-4.6,0.4-6.7
				c1-2.1,2.6-3.8,4.3-5.3c4.5-4,10-6.9,15.9-8.4c4-1,8.6-1.3,12.2,0.8c2.7,1.6,4.6,4.5,5,7.6c0.5,3.9-1.9,8-3.6,11.3c0,0,0,0,0,0.1
				c-0.1,1.8,1.3,2.1,3,1.8c0,0,0,0,0.1,0c0,0,0,0,0,0c7-2.7,13.6-6,20.4-9.1c4.5-2.1,15.7-4.5,11.1-11.8c-0.9-1.4-2.1-2.5-3.2-3.8
				c-2.2-2.6-3.5-5.8-4-9.2c-0.2-1.1,0.2-3.1,0.4-5C304.8,78.8,304.9,76.8,303.8,76.1z"/>
			<path fill="#FFFFFF" d="M174.2,203c-0.9,4.3-1.4,8.1,3.5,11.3c8,5.4,15.4,11.7,22.8,18c5,4.3,6,4,10.4-0.9
				c7-7.6,14.5-14.9,22.2-21.8c9.4-8.3,19.6-15.5,28.9-23.9c7.4-6.7,14.1-14.4,20.8-21.9c11-12,20.2-25.3,26.8-40.3
				c1.5-3.3,1.4-7.1,1.7-10.7c-0.3,2.9-15.8,9.4-18.4,10.7c-6.8,3.3-13.8,6-21,8.2c-14.4,4.5-29.4,6.8-44.5,7
				c-31.5,0.4-56.6-9.5-83.6-23.9c-5.8-3.1-14.8-0.5-17.1,5.2c-2.2,5.7-2.9,11.7-1,17.6c2.6,7.9,5.4,15.7,8.1,23.6
				c3.5,10.2,7,20.5,10.5,30.8c0.3,0.9,0.8,2,1.6,2.4c6.4,3.8,13,7.5,20.1,11.6c5.3-23.2-4.7-41.4-16.4-59.3
				c6.6,4.2,12.7,8.5,18.4,13.3c7.9,6.6,11.4,15.4,10,25.5C177.3,191.5,175.4,197.2,174.2,203z M144.7,128.1c3.3,1.3,6.9,2.1,9.8,4
				c15.6,9.9,31.8,18,49.9,22.7c16.3,4.3,32.5,4.7,48.8,2.9c6.8-0.7,13.6-2.6,21.3-4.2c-3.7,9.1-10.9,13.3-17.8,16
				c-9.4,3.7-19.9,6.9-29.8,6.6c-16.8-0.5-32.9-4.9-46-17.4C169.5,148,156.8,138.7,144.7,128.1z"/>
			<path fill="#FFFFFF" d="M222.6,243c0.1-0.1,0.2-0.2,0.3-0.2c2.3-1.9,3.9-4.8,5.8-7c7-8.5,15-16.9,24.1-23.3
				c8-5.6,18-8.8,26.8-13.3c18.9-9.6,37.4-21.8,49.1-40c8.4-13,12.8-28.3,15.7-43.5c1.5-7.9,2.6-16.2,0.1-23.8
				c-2.3-7.2-18.9-22.3-26.3-13.1c-4.7,5.9,3.2,17.8,3.7,24.1c0.9,12.5-2.1,25.3-7.7,36.5c-8.9,17.7-23.5,31.8-38.7,44.6
				c-11.4,9.6-23.3,18.7-34.1,29c-9.3,8.9-21.6,18.9-23.2,32.6C218.3,244.7,221.9,243.5,222.6,243z"/>
			<path fill="#FFFFFF" d="M230.8,255.2c17.1,9,34.8,17,52.5,24.9c5.8,2.6,12.3,4.6,18.7,5.1c6.1,0.5,12.2-0.4,17.5-3.5
				c7.4-4.3,12-12.1,15.3-20c5.2-12.6,7.5-26.2,7.1-39.8c-0.3-9.7-1.5-30.8-9.9-37.5c-3.7-2.9-4.9,0-8.8,2.8
				c-14.5,10.7-31.7,17-48,24.5C268.3,214.9,215.5,247.2,230.8,255.2z"/>
			<path fill="#FFFFFF" d="M90,213.2c13.1,2.9,26,6.6,38.3,11.8c6.2,2.6,12.3,5.6,18.1,9c5.7,3.4,9.9,7.8,14.8,12.1
				c0.9,0.8,2.8,1.7,1.4,2.7c-0.8,0.6-9.8-4.3-11-4.8c-3.9-1.6-7.8-3.1-11.7-4.6c-7.8-2.9-15.8-5.5-23.9-7.8
				c-15.5-4.4-31.2-7.2-47-9.6c-2.9-0.4-8.8-0.3-11.2-2.2c0.1,0.8,0.2,1.2,0.3,1.6c0,0.1,0.1,0.1,0.1,0.2
				c7.2,14.3,17.5,27.3,27.3,39.7c9.7,12.2,20,23.9,31,35c11.2,11.3,23,22,35.3,32c6.2,5.1,12.6,9.9,19.1,14.6c6.2,4.5,12.6,8,19,12
				c13.4,8.3,28,14,43.3,18c4.8,1.3,9.9,2.1,15.3,2.5c3.5,24.4,7.5,62.4,5.5,96.8l40.6,2.4c2.2-37.8-2-78.1-5.7-104.3
				c19-6.2,35.9-17.7,44.6-34.1c3.8-7.2,7.7-28-1.1-34.2c-1.1-0.7-2.3-1.3-3.8-1.5c-67.2-11.9-120.6-47.8-176.3-85.5
				c-6.7-3.9-13.5-7.5-20.5-10.8c-14.8-7-30.5-12.3-46.8-14.6c-15.4-2.2-31.2-2.2-46.1,2.9c-5.4,1.9-8.8,3.6-12.4,7.9
				c9.8,3.4,21.2,4.5,31.4,6.3C68.7,208.9,79.4,210.8,90,213.2z"/>
			<path fill="#FFFFFF" d="M409.5,177.5c-5.9,3.7-9.5,10-12.8,16c-4.7,8.5-51.2,98.3-56.4,95.8c16.5,8.2,17.7,22.4,12.6,38.7
				c1.3-0.2,1.8-0.1,2.2-0.3c18.8-7.5,32.8-21.7,47.9-34.4c8-6.8,16.2-13.5,24.7-19.6c17.2-12.4,36.4-21.1,56.7-27.3
				c7.3-2.2,8.9-6.5,4.9-13c-3.1-5.1-6.9-9.8-10.3-14.7c-7.3-10.6-17.4-18.4-27.3-26.3C442.1,184.9,421.7,169.9,409.5,177.5z"/>
			<path fill="#FFFFFF" d="M267.9,57.5c9.2,0.3,21.7-0.6,23.4-1c11.4-2.8,21-9.5,32.8-11.3c13.8-2.2,27.9-0.8,40,6.4
				c10.8,6.4,21.3,13.2,31.9,19.8c1,0.6,1.7,1.8,3.6,3.8c-4.9-0.9-8.4-1.1-11.5-2.2c-9.7-3.5-19.1-8-29.1-10.7
				c-6.1-1.6-12.7-0.4-19-0.3c0.6,3.2,2.5,4.4,4.7,6.7c2.6,2.7,4.9,5.6,6.9,8.8c4,6.3,6.7,13.4,7.8,20.8c1.2,7.8,0.6,15.9-1.7,23.6
				c-2.4,8-6.9,15-10.1,22.7c-2.4,5.9-4.9,11.7-6.8,17.7c-3.4,10.8,0.4,20.7,4.9,30.4c0.8,1.8,1.9,3.4,2.9,5.3
				c2.9-8.2,4.9-16,9.2-23.7c4.2-7.7,9.3-14.9,14.1-22.3c7.9-12.1,15.3-25.2,16.8-39.6c0.6-5.7,1.7-12.1,8.7-12.5
				c1.9,6.2,3.7,12.3,3.7,18.8c0,0.2,0.1,0.5,0.1,0.8c1.6,15.3-11.9,27.3-19.7,38.9c-8.8,12.9-16.3,26.8-21.6,41.5
				c-0.7,2.1-1.4,4.1-2.1,6.2c-2.7,8.7-4.7,17.6-6.2,26.5c-0.8,4.6-1.5,9.2-2.1,13.8c-0.5,3.9-2.4,9.7-1.5,13.4
				c1.3-0.2,2.2-2.7,2.8-3.9c3.4-7.6,6.2-15.6,10.1-22.9c8.8-16.7,17.6-33.3,26.5-49.9c8.8-16.3,20.2-30.8,30.4-46.2
				c10.5-15.8,19.4-33.7,19.7-52.6S427.3,45,409.2,39c-24.7-8.1-51.9-13.8-77.9-15.6c-26.8-1.9-66.2-1.4-73.2,31.7
				C257.8,56.7,262.2,57.3,267.9,57.5z"/>
			<path fill="#FFFFFF" d="M430.7,55.9c0-0.2-0.1-0.3-0.2-0.5c-2.9-6.3-7.2-11.7-13.5-14.9c-2.3-1.2-4.8-2.1-7.3-3
				c-0.6-0.1-1.2-0.2-1.9-0.3c-0.2,0-0.4-0.1-0.6-0.1c3.4,0.9,6.7,2.1,9.8,3.6C423.5,44.1,427.8,49.5,430.7,55.9z"/>
		</g>
	</g>
</g>
</svg>
