<?xml version="1.0" encoding="utf-8"?>
<!-- Generator: Adobe Illustrator 18.0.0, SVG Export Plug-In . SVG Version: 6.00 Build 0)  -->
<!DOCTYPE svg PUBLIC "-//W3C//DTD SVG 1.1//EN" "http://www.w3.org/Graphics/SVG/1.1/DTD/svg11.dtd">
<svg version="1.1" id="Capa_1" xmlns="http://www.w3.org/2000/svg" xmlns:xlink="http://www.w3.org/1999/xlink" x="0px" y="0px"
	 viewBox="0 0 640 1136" enable-background="new 0 0 640 1136" xml:space="preserve">
<g>
	<path fill="#4E605E" d="M319.2,747.6c22.5,0,40.8-18.3,40.8-40.7V456.6h58.8l25.7,60.1c1.3,3,4.6,4.8,7.9,4.1
		c3.3-0.7,5.6-3.6,5.6-6.9V408.5c0-11.1-9-20.1-20.1-20.1H202.1c-11.1,0-20.1,9-20.1,20.1V514c0,3.3,2.3,6.2,5.6,6.9
		c3.3,0.7,6.5-1,7.9-4.1l25.7-60.1h57.2v250.2C278.4,729.3,296.7,747.6,319.2,747.6z"/>
	<rect x="171.6" y="291.3" fill="#4E605E" width="296.8" height="42.5"/>
	<rect x="43.3" y="419.6" fill="#4E605E" width="42.5" height="296.8"/>
	<rect x="171.6" y="802.2" fill="#4E605E" width="296.8" height="42.5"/>
	<rect x="554.2" y="419.6" fill="#4E605E" width="42.5" height="296.8"/>
	<path fill="#4E605E" d="M100.3,758.9H28.7C12.9,758.9,0,771.8,0,787.7v71.6C0,875.1,12.9,888,28.7,888h71.6
		c15.9,0,28.7-12.9,28.7-28.7v-71.6C129.1,771.8,116.2,758.9,100.3,758.9z"/>
	<path fill="#4E605E" d="M611.3,758.9h-71.6c-15.9,0-28.7,12.9-28.7,28.7v71.6c0,15.9,12.9,28.7,28.7,28.7h71.6
		c15.9,0,28.7-12.9,28.7-28.7v-71.6C640,771.8,627.1,758.9,611.3,758.9z"/>
	<path fill="#4E605E" d="M100.3,248H28.7C12.9,248,0,260.9,0,276.7v71.6c0,15.9,12.9,28.7,28.7,28.7h71.6
		c15.9,0,28.7-12.9,28.7-28.7v-71.6C129.1,260.9,116.2,248,100.3,248z"/>
	<path fill="#4E605E" d="M611.3,248h-71.6c-15.9,0-28.7,12.9-28.7,28.7v71.6c0,15.9,12.9,28.7,28.7,28.7h71.6
		c15.9,0,28.7-12.9,28.7-28.7v-71.6C640,260.9,627.1,248,611.3,248z"/>
</g>
</svg>
