<?xml version="1.0" encoding="utf-8"?>
<!-- Generator: Adobe Illustrator 16.0.0, SVG Export Plug-In . SVG Version: 6.00 Build 0)  -->
<!DOCTYPE svg PUBLIC "-//W3C//DTD SVG 1.1//EN" "http://www.w3.org/Graphics/SVG/1.1/DTD/svg11.dtd">
<svg version="1.1" id="Layer_1" xmlns="http://www.w3.org/2000/svg" xmlns:xlink="http://www.w3.org/1999/xlink" x="0px" y="0px"
	 width="329.456px" height="103px" viewBox="0 0 329.456 103" enable-background="new 0 0 329.456 103" xml:space="preserve">
<g>
	<path fill="#F4ECE5" d="M91.241,55.263c0-7.957,0-15.913,0-23.87"/>
</g>
<g>
	<path fill="#4E615F" d="M95.511,34.553c0.131-1.075,0.436-2.445,0.913-4.111c0.477-1.665,1.028-3.17,1.653-4.514
		c0.822-1.773,1.679-2.954,2.567-3.547c1.315-0.858,2.55-0.536,3.702,0.968c0.263,0.322,0.477,0.834,0.642,1.531
		c0.131,0.431,0.247,0.94,0.346,1.531c0.197,1.076,0.395,2.526,0.593,4.353c0.296,2.956,0.592,6.879,0.888,11.769
		c0.494,8.598,0.773,15.181,0.84,19.747v0.322v0.807v0.726v0.725l1.629-6.367c0.954-3.653,1.711-6.421,2.271-8.302
		c0.395-1.235,0.724-2.203,0.987-2.902c0.197-0.429,0.378-0.778,0.543-1.048c0.428-0.645,0.905-0.913,1.432-0.806
		c0.395,0.161,0.74,0.564,1.036,1.209c0.165,0.27,0.312,0.645,0.444,1.129c0.23,0.698,0.478,1.692,0.741,2.981
		c0.197,0.807,0.756,3.547,1.678,8.222c0.724,3.655,1.3,6.287,1.728,7.899c0.165-1.074,0.362-2.525,0.593-4.353
		c0.164-1.182,0.346-2.605,0.543-4.272l0.494-4.353c0.131-1.181,0.246-2.041,0.345-2.579c2.14-13.594,5.529-24.368,10.169-32.321
		c0.264-0.43,0.584-0.645,0.963-0.645c0.378,0,0.699,0.201,0.963,0.604c0.263,0.402,0.395,0.914,0.395,1.531
		c0,0.618-0.115,1.143-0.346,1.571c-4.344,7.416-7.536,17.545-9.576,30.388l-0.346,2.498c-0.132,1.129-0.288,2.526-0.469,4.191
		c-0.182,1.667-0.354,3.063-0.519,4.191c-0.329,2.634-0.609,4.648-0.839,6.046c-0.165,0.914-0.329,1.64-0.494,2.176
		c-0.132,0.377-0.264,0.699-0.395,0.967c-0.296,0.591-0.659,0.913-1.086,0.968c-0.461,0.053-0.889-0.189-1.283-0.726
		c-0.231-0.322-0.444-0.726-0.643-1.209c-0.296-0.697-0.608-1.692-0.938-2.982c-0.428-1.719-1.021-4.459-1.777-8.222
		c-0.889-4.514-1.432-7.227-1.629-8.141l-0.147-0.564l-0.148,0.484c-0.56,1.827-1.301,4.514-2.222,8.06l-2.122,8.222l-0.691,2.74
		c-0.132,0.377-0.23,0.673-0.296,0.887c-0.033,0.161-0.083,0.296-0.148,0.403c-0.033,0.161-0.082,0.295-0.148,0.403
		c-0.23,0.322-0.493,0.536-0.789,0.645c-0.626,0.107-1.152-0.216-1.58-0.968c-0.23-0.429-0.428-0.993-0.592-1.692
		c-0.165-0.858-0.28-1.987-0.346-3.385c-0.033-0.968-0.05-2.068-0.05-3.305v-0.726v-0.646V62.44
		c-0.066-4.514-0.346-11.015-0.839-19.506c-0.296-4.781-0.593-8.624-0.889-11.525c-0.165-1.612-0.329-2.874-0.493-3.789
		c-0.066-0.429-0.133-0.752-0.198-0.967v-0.081c-0.296-0.322-0.592-0.375-0.889-0.161c-0.461,0.27-0.954,0.995-1.48,2.177
		c-0.526,1.075-0.979,2.297-1.357,3.667c-0.379,1.37-0.634,2.459-0.766,3.265c-0.065,0.592-0.255,1.048-0.567,1.37
		c-0.313,0.322-0.65,0.417-1.012,0.282c-0.362-0.134-0.642-0.456-0.839-0.967C95.461,35.694,95.413,35.145,95.511,34.553z"/>
	<path fill="#4E615F" d="M133.717,64.617c0.099,1.559,0.346,2.821,0.74,3.788c0.822,1.988,2.238,2.607,4.245,1.854
		c1.646-0.645,2.929-2.39,3.851-5.238c0.329-1.021,0.625-2.082,0.889-3.185c0.263-1.101,0.543-2.378,0.839-3.828
		c0.297-1.451,0.56-2.687,0.79-3.708c0.131-0.536,0.362-0.927,0.691-1.169c0.328-0.241,0.666-0.254,1.012-0.04
		c0.346,0.216,0.593,0.592,0.74,1.129c0.148,0.537,0.156,1.102,0.025,1.692l-0.691,3.385c-0.329,1.506-0.642,2.902-0.938,4.191
		c-0.296,1.29-0.625,2.499-0.986,3.627c-1.284,3.978-3.16,6.421-5.628,7.335c-3.192,1.235-5.528,0.026-7.01-3.627
		c-1.185-2.848-1.563-6.609-1.135-11.284c0.361-4.353,1.233-8.006,2.616-10.962c0.756-1.612,1.629-2.808,2.616-3.587
		c0.987-0.778,2.04-0.873,3.159-0.282c1.876,1.076,2.863,3.278,2.962,6.609c0.099,2.579-0.379,5.187-1.432,7.818
		c-1.086,2.741-2.436,4.542-4.048,5.4C135.906,65.128,134.803,65.155,133.717,64.617z M133.767,59.942
		c0.789,0.753,1.596,0.914,2.419,0.483c1.02-0.591,1.908-1.826,2.665-3.708c0.724-1.826,1.053-3.546,0.987-5.158
		c-0.033-1.396-0.428-2.283-1.185-2.66c-0.889-0.536-1.811,0.242-2.765,2.338C134.803,53.548,134.095,56.45,133.767,59.942z"/>
	<path fill="#4E615F" d="M151.882,46.885c-0.165-3.063-0.214-6.099-0.147-9.108c0.229-7.738,1.217-13.353,2.962-16.846
		c1.151-2.31,2.435-3.386,3.85-3.225c0.79,0.055,1.473,0.512,2.049,1.37c0.575,0.86,1.012,2.016,1.309,3.467
		c0.229,1.236,0.312,2.875,0.246,4.916c0,0.484-0.024,1.209-0.073,2.177c-0.05,0.967-0.074,1.666-0.074,2.096
		c0,0.27-0.05,0.564-0.148,0.887c-1.48,12.412-3.308,22.246-5.479,29.5l0.396,2.177c0.493,2.257,1.003,3.762,1.53,4.514
		c0.131,0.215,0.263,0.322,0.395,0.322c0.197,0,0.444-0.188,0.74-0.564c1.908-2.418,3.291-7.441,4.146-15.072
		c0.065-0.591,0.255-1.061,0.568-1.411c0.312-0.349,0.649-0.47,1.012-0.362c0.361,0.108,0.649,0.417,0.863,0.927
		c0.214,0.512,0.288,1.062,0.223,1.652c-0.987,8.705-2.699,14.589-5.134,17.652c-0.823,1.02-1.629,1.531-2.419,1.531
		s-1.514-0.457-2.172-1.37c-0.725-1.074-1.366-2.713-1.925-4.917l-0.346,0.887c-1.054,2.365-2.354,4.058-3.9,5.078
		c-0.822,0.697-1.752,0.887-2.789,0.564c-1.036-0.323-1.917-1.263-2.641-2.821c-1.054-2.364-1.465-5.588-1.234-9.673
		c0.23-3.6,0.889-6.851,1.975-9.753c1.316-3.385,2.863-5.104,4.641-5.158C150.829,46.32,151.356,46.509,151.882,46.885z
		 M153.561,61.635c-0.165-1.021-0.313-2.122-0.444-3.305c-0.362-2.901-0.56-4.405-0.593-4.514c-0.032-0.214-0.049-0.43-0.049-0.645
		c-0.758-1.665-1.481-2.499-2.172-2.499c-0.79,0-1.58,1.048-2.369,3.144c-0.889,2.365-1.416,4.997-1.58,7.899
		c-0.197,2.901,0.05,5.105,0.74,6.609c0.526,1.183,1.283,1.45,2.271,0.806c1.054-0.698,1.958-1.907,2.716-3.627
		C152.574,64.375,153.068,63.086,153.561,61.635z M154.795,52.526c0.164,0.484,0.312,1.048,0.444,1.693
		c0,0.054,0.016,0.107,0.049,0.161c0.921-5.643,1.728-12.359,2.419-20.151c0-0.161,0-0.294,0-0.402c0-0.322,0.017-0.913,0.05-1.773
		c0.032-0.859,0.049-1.504,0.049-1.935c0.065-1.451,0.032-2.525-0.099-3.224c-0.132-1.075-0.329-1.612-0.593-1.612
		c-0.362-0.053-0.74,0.457-1.135,1.531c-0.922,2.526-1.448,6.932-1.58,13.219C154.301,44.547,154.432,48.712,154.795,52.526z"/>
	<path fill="#4E615F" d="M170.048,46.885c-0.165-3.063-0.214-6.099-0.147-9.108c0.229-7.738,1.217-13.353,2.962-16.846
		c1.151-2.31,2.435-3.386,3.85-3.225c0.79,0.055,1.473,0.512,2.049,1.37c0.575,0.86,1.012,2.016,1.309,3.467
		c0.229,1.236,0.312,2.875,0.246,4.916c0,0.484-0.024,1.209-0.073,2.177c-0.05,0.967-0.074,1.666-0.074,2.096
		c0,0.27-0.05,0.564-0.148,0.887c-1.48,12.412-3.308,22.246-5.479,29.5l0.396,2.177c0.493,2.257,1.003,3.762,1.53,4.514
		c0.131,0.215,0.263,0.322,0.395,0.322c0.197,0,0.444-0.188,0.74-0.564c1.908-2.418,3.291-7.441,4.146-15.072
		c0.065-0.591,0.255-1.061,0.568-1.411c0.312-0.349,0.649-0.47,1.012-0.362c0.361,0.108,0.649,0.417,0.863,0.927
		c0.214,0.512,0.288,1.062,0.223,1.652c-0.987,8.705-2.699,14.589-5.134,17.652c-0.823,1.02-1.629,1.531-2.419,1.531
		s-1.514-0.457-2.172-1.37c-0.725-1.074-1.366-2.713-1.925-4.917l-0.346,0.887c-1.054,2.365-2.354,4.058-3.9,5.078
		c-0.822,0.697-1.752,0.887-2.789,0.564c-1.036-0.323-1.917-1.263-2.641-2.821c-1.054-2.364-1.465-5.588-1.234-9.673
		c0.23-3.6,0.889-6.851,1.975-9.753c1.316-3.385,2.863-5.104,4.641-5.158C168.995,46.32,169.522,46.509,170.048,46.885z
		 M171.727,61.635c-0.165-1.021-0.313-2.122-0.444-3.305c-0.362-2.901-0.56-4.405-0.593-4.514c-0.032-0.214-0.049-0.43-0.049-0.645
		c-0.758-1.665-1.481-2.499-2.172-2.499c-0.79,0-1.58,1.048-2.369,3.144c-0.889,2.365-1.416,4.997-1.58,7.899
		c-0.197,2.901,0.05,5.105,0.74,6.609c0.526,1.183,1.283,1.45,2.271,0.806c1.054-0.698,1.958-1.907,2.716-3.627
		C170.74,64.375,171.234,63.086,171.727,61.635z M172.961,52.526c0.164,0.484,0.312,1.048,0.444,1.693
		c0,0.054,0.016,0.107,0.049,0.161c0.921-5.643,1.728-12.359,2.419-20.151c0-0.161,0-0.294,0-0.402c0-0.322,0.017-0.913,0.05-1.773
		c0.032-0.859,0.049-1.504,0.049-1.935c0.065-1.451,0.032-2.525-0.099-3.224c-0.132-1.075-0.329-1.612-0.593-1.612
		c-0.362-0.053-0.74,0.457-1.135,1.531c-0.922,2.526-1.448,6.932-1.58,13.219C172.467,44.547,172.598,48.712,172.961,52.526z"/>
	<path fill="#4E615F" d="M184.462,47.771c-0.033,0.431-0.197,2.096-0.494,4.997c-0.296,2.688-0.511,5.052-0.642,7.093
		c-0.197,2.688-0.28,4.81-0.247,6.368c0.065,1.72,0.198,2.768,0.396,3.144s0.361,0.592,0.493,0.645c0.099,0,0.247-0.107,0.444-0.322
		c0.625-0.752,1.333-2.364,2.123-4.837c0.757-2.418,1.728-6.42,2.912-12.01c0.131-0.536,0.361-0.939,0.691-1.209
		c0.328-0.268,0.666-0.309,1.012-0.12s0.6,0.551,0.765,1.088c0.165,0.538,0.198,1.102,0.1,1.692
		c-1.252,5.804-2.288,9.995-3.11,12.574c-0.987,3.062-1.958,5.158-2.912,6.287c-0.758,0.913-1.515,1.289-2.271,1.128
		c-0.822-0.108-1.562-0.779-2.221-2.015c-0.626-1.182-0.987-3.116-1.086-5.804c-0.033-1.88,0.049-4.271,0.246-7.174
		c0.132-1.826,0.346-4.191,0.643-7.093c0.296-2.901,0.46-4.54,0.493-4.917c0.065-0.645,0.238-1.141,0.519-1.491
		c0.279-0.349,0.608-0.483,0.987-0.402c0.378,0.08,0.674,0.35,0.889,0.806C184.404,46.656,184.495,47.181,184.462,47.771z
		 M184.758,34.311c0.263,0.431,0.395,0.94,0.395,1.531c0,0.592-0.132,1.103-0.395,1.531c-0.264,0.431-0.576,0.646-0.938,0.646
		c-0.363,0-0.676-0.215-0.938-0.646c-0.264-0.429-0.395-0.939-0.395-1.531c0-0.591,0.131-1.101,0.395-1.531
		c0.263-0.43,0.575-0.645,0.938-0.645C184.182,33.666,184.495,33.881,184.758,34.311z"/>
	<path fill="#4E615F" d="M195.766,49.383c-0.132,0.108-0.312,0.323-0.543,0.646c-0.625,0.806-1.316,2.23-2.073,4.271
		c-0.625,1.721-1.218,3.494-1.776,5.32c-0.527,1.881-0.856,3.171-0.987,3.868c-0.066,0.27-0.132,0.673-0.198,1.209
		c-0.23,2.257-0.477,4.461-0.74,6.609c0,0.216-0.017,0.377-0.049,0.484c0,0.215-0.033,0.431-0.099,0.645
		c-0.066,0.161-0.148,0.322-0.247,0.483c-0.461,0.752-0.972,0.913-1.53,0.483c-0.362-0.27-0.593-0.725-0.691-1.37
		c-0.033-0.106-0.049-0.241-0.049-0.402v-0.403v-0.403c0.032-0.483,0.114-1.262,0.246-2.337c0.198-1.826,0.378-3.358,0.543-4.595
		c0.428-4.728,0.741-9.537,0.938-14.428c0.032-0.591,0.188-1.088,0.469-1.491c0.279-0.403,0.6-0.577,0.963-0.524
		c0.361,0.055,0.666,0.311,0.913,0.767c0.247,0.457,0.354,0.98,0.32,1.571c-0.033,0.592-0.049,1.156-0.049,1.692
		c0.822-2.148,1.596-3.733,2.32-4.755c1.414-1.987,2.697-2.283,3.85-0.887c0.593,0.698,1.004,1.801,1.234,3.305
		c0.164,1.021,0.263,2.311,0.296,3.869c0,0.967-0.024,2.553-0.073,4.755c-0.05,2.204-0.074,3.521-0.074,3.95
		c-0.033,3.277,0.114,5.615,0.444,7.012c0.131,0.646,0.304,1.088,0.518,1.33s0.535,0.336,0.963,0.282
		c0.658-0.107,1.151-0.375,1.481-0.806c0.229-0.376,0.608-1.236,1.135-2.58c0.724-1.826,1.415-4.083,2.073-6.771l0.296-1.37v-0.161
		l0.05-0.645c0.032-0.053,0.057-0.121,0.074-0.202c0.016-0.08,0.024-0.146,0.024-0.201l0.197-0.564l0.987-3.868
		c0.164-0.537,0.411-0.913,0.74-1.129c0.329-0.214,0.667-0.201,1.013,0.04c0.346,0.242,0.584,0.633,0.716,1.169
		c0.131,0.538,0.131,1.103,0,1.692l-0.593,2.177v0.161c-0.066,0.377-0.412,1.882-1.036,4.514c-0.725,2.956-1.481,5.481-2.271,7.577
		c-0.658,1.666-1.218,2.82-1.678,3.466c-0.758,1.02-1.761,1.638-3.012,1.854c-1.054,0.161-1.958-0.188-2.715-1.048
		c-0.658-0.753-1.152-1.88-1.48-3.386c-0.429-1.88-0.626-4.755-0.593-8.624c0.032-0.483,0.065-1.773,0.099-3.869
		c0.032-2.096,0.05-3.653,0.05-4.675c-0.033-1.235-0.099-2.176-0.197-2.821C195.898,49.84,195.833,49.544,195.766,49.383z"/>
	<path fill="#4E615F" d="M215.315,67.357c-0.527,1.451-1.119,2.688-1.777,3.708c-1.054,1.719-2.156,2.713-3.308,2.982
		c-1.415,0.268-2.748-0.512-3.998-2.338c-1.481-2.202-1.975-5.562-1.481-10.075c0.428-3.653,1.365-7.174,2.814-10.559
		c1.546-3.654,3.159-5.804,4.837-6.448c1.118-0.484,2.123-0.215,3.012,0.806c0.724,0.806,1.315,2.043,1.776,3.708
		c0.033,0,0.066,0.027,0.1,0.08c0.131,0.216,0.229,0.431,0.296,0.646l0.147,0.645l0.05,0.161v0.242
		c0.263,4.675,0.312,11.15,0.148,19.425c1.843-3.062,3.142-5.991,3.899-8.786c0.065-0.214,0.181-1.074,0.346-2.579l0.099-1.289
		c0.032-0.43,0.065-0.833,0.099-1.209c0.032-0.376,0.05-0.591,0.05-0.646c0.065-0.591,0.246-1.061,0.543-1.41
		c0.296-0.349,0.624-0.483,0.987-0.403c0.361,0.081,0.649,0.363,0.863,0.847s0.304,1.021,0.271,1.612
		c0,0.054-0.017,0.27-0.049,0.645c-0.033,0.377-0.074,0.793-0.124,1.249c-0.049,0.457-0.091,0.874-0.123,1.25
		c-0.197,1.934-0.362,3.171-0.494,3.707c-0.625,2.257-1.538,4.568-2.739,6.932c-1.202,2.364-2.461,4.434-3.776,6.207
		c-0.165,4.62-0.412,8.006-0.74,10.155c-0.396,2.848-1.119,5.078-2.172,6.69c-0.725,1.074-1.515,1.692-2.37,1.854
		c-0.954,0.161-1.908-0.322-2.862-1.45c-1.548-1.828-2.058-4.514-1.53-8.061c0.427-2.795,1.233-4.997,2.418-6.609
		c0.56-0.699,1.35-1.519,2.37-2.458c1.02-0.941,1.711-1.626,2.073-2.056l0.197-0.242C215.232,72.141,215.282,69.83,215.315,67.357z
		 M214.969,51.721c-0.329-1.343-0.691-2.229-1.086-2.66c-0.23-0.268-0.511-0.349-0.84-0.241c-1.021,0.431-2.122,2.015-3.307,4.755
		c-1.218,2.902-2.008,5.857-2.37,8.866c-0.329,2.902-0.115,4.917,0.642,6.046c0.625,0.914,1.251,1.317,1.876,1.209
		c0.56-0.107,1.16-0.672,1.802-1.693c0.642-1.02,1.21-2.297,1.703-3.828c0.494-1.531,0.84-2.942,1.037-4.231
		c0.229-1.72,0.444-4.03,0.642-6.932c0-0.107,0.016-0.376,0.049-0.807C215.05,52.043,215.001,51.882,214.969,51.721z
		 M214.969,79.689l-0.79,0.646c-0.889,0.806-1.547,1.503-1.975,2.096c-0.725,0.967-1.218,2.363-1.48,4.19
		c-0.264,1.665-0.099,2.848,0.493,3.547c0.395,0.483,0.74,0.698,1.037,0.645c0.263-0.054,0.525-0.27,0.789-0.645
		c0.658-1.021,1.136-2.526,1.432-4.514C214.672,84.256,214.837,82.269,214.969,79.689z"/>
	<path fill="#4E615F" d="M245.03,55.348c1.844-3.277,4.475-4.836,7.898-4.675c0.723,0.054,2.057,0.242,3.998,0.564
		c1.58,0.322,2.781,0.457,3.604,0.402c0.361,0,0.684,0.202,0.963,0.604c0.279,0.403,0.42,0.901,0.42,1.491
		c0,0.592-0.123,1.116-0.371,1.572c-0.246,0.457-0.551,0.685-0.912,0.685c-0.922,0.055-2.09-0.053-3.506-0.322
		c-1.908,6.448-3.949,10.99-6.121,13.622c-1.875,2.257-3.916,3.171-6.121,2.74c-3.521-0.697-5.906-3.492-7.156-8.383
		c-0.922-3.599-1.17-8.167-0.742-13.702c0.199-2.632,0.691-5.723,1.482-9.27c0.756-3.492,1.693-6.823,2.812-9.994
		c3.027-8.329,6.352-12.413,9.973-12.252c1.217,0.055,2.246,0.726,3.084,2.016c0.84,1.289,1.439,2.82,1.803,4.594
		c0.229,1.076,0.41,2.271,0.543,3.587c0.131,1.317,0.205,2.539,0.223,3.668c0.016,1.128,0.023,2.311,0.023,3.546v3.144
		c0,0.592-0.123,1.116-0.369,1.572c-0.248,0.457-0.553,0.685-0.914,0.685c-0.363,0-0.684-0.201-0.963-0.604s-0.42-0.899-0.42-1.491
		c0-1.128-0.008-2.283-0.023-3.466c-0.018-1.182-0.025-2.27-0.025-3.265c0-0.993-0.049-2.015-0.148-3.062
		c-0.098-1.048-0.23-2.001-0.395-2.861c-0.527-2.418-1.365-3.653-2.518-3.708c-1.283-0.053-2.574,0.807-3.875,2.579
		c-1.301,1.773-2.543,4.3-3.727,7.577c-1.021,2.849-1.893,5.911-2.617,9.188c-0.689,3.278-1.119,6.045-1.283,8.302
		c-0.361,4.837-0.182,8.679,0.543,11.526c0.855,3.333,2.518,5.239,4.986,5.723c1.514,0.322,2.928-0.322,4.246-1.935
		c1.709-2.041,3.338-5.562,4.887-10.559c-0.527-0.107-1.021-0.161-1.482-0.161c-2.6-0.161-4.541,0.914-5.824,3.224
		c-0.264,0.431-0.576,0.673-0.938,0.726c-0.363,0.055-0.676-0.133-0.938-0.564c-0.264-0.429-0.412-0.939-0.445-1.531
		C244.651,56.288,244.767,55.778,245.03,55.348z"/>
	<path fill="#4E615F" d="M265.417,44.063c1.383,0.538,2.748,0.887,4.098,1.048h0.049c0.064-0.053,0.213-0.081,0.443-0.081
		c0.791-0.161,1.383,0.216,1.777,1.129c0.197,0.431,0.297,0.967,0.297,1.612c0,0.27-0.018,0.618-0.049,1.048
		c-0.033,0.483-0.117,1.209-0.248,2.176l-0.494,2.982c-0.23,1.397-0.395,2.445-0.492,3.144c-0.395,2.634-0.66,4.81-0.791,6.528
		c-0.197,2.096-0.197,3.601,0,4.514c0.131,0.699,0.346,1.264,0.643,1.693c0.297,0.431,0.625,0.618,0.986,0.564
		c1.186-0.107,2.305-2.016,3.357-5.724c0.822-2.847,1.48-6.152,1.975-9.914c0.033-0.591,0.205-1.061,0.518-1.41
		c0.312-0.349,0.635-0.456,0.963-0.322c0.328,0.135,0.6,0.457,0.814,0.967c0.215,0.512,0.271,1.035,0.174,1.572
		c-0.527,4.138-1.234,7.792-2.123,10.962c-1.48,5.267-3.34,8.006-5.578,8.221c-1.021,0.107-1.908-0.39-2.666-1.49
		c-0.758-1.102-1.275-2.391-1.555-3.869c-0.279-1.478-0.305-3.587-0.074-6.327c0.131-1.881,0.412-4.218,0.84-7.013
		c0.131-0.698,0.295-1.746,0.494-3.144l0.443-2.901l0.1-0.646c-1.088-0.106-2.141-0.322-3.16-0.645l-0.197,1.773
		c-0.1,0.699-0.182,1.209-0.246,1.531c-0.033,0.216-0.084,0.457-0.148,0.726l-0.346,1.612c-0.166,0.698-0.346,1.424-0.543,2.176
		c-0.133,0.592-0.354,1.008-0.666,1.249c-0.314,0.242-0.635,0.256-0.963,0.041c-0.33-0.215-0.568-0.591-0.717-1.129
		c-0.148-0.536-0.156-1.074-0.023-1.612c0.164-0.806,0.32-1.544,0.469-2.216s0.254-1.129,0.32-1.37
		c0.066-0.242,0.115-0.47,0.148-0.686c0.031-0.214,0.082-0.617,0.148-1.209l0.395-2.901c0-0.107,0.016-0.215,0.049-0.323
		c0-0.268,0.016-0.51,0.049-0.725c0.066-0.591,0.248-1.048,0.543-1.37C264.726,43.982,265.054,43.902,265.417,44.063z"/>
	<path fill="#4E615F" d="M287.778,50.351c0.031,0,0.064,0.027,0.098,0.08c0.264,0.431,0.412,0.968,0.445,1.612
		c0.031,0.483-0.018,1.048-0.148,1.692c0,0.108-0.082,0.431-0.246,0.968l-0.051,0.402c-0.197,1.721-0.295,2.607-0.295,2.66
		c-0.066,0.914-0.115,1.827-0.148,2.74c-0.066,1.021-0.1,1.612-0.1,1.773c0,2.15,0.133,3.869,0.396,5.159
		c0.361,1.45,0.904,2.337,1.629,2.659c0.656,0.27,1.266,0,1.826-0.806c0.592-0.859,1.184-2.338,1.777-4.434
		c0.426-1.558,0.871-3.627,1.332-6.206c0.625-3.224,0.971-4.97,1.037-5.239c0.131-0.591,0.361-1.008,0.691-1.249
		c0.328-0.242,0.666-0.255,1.012-0.04s0.592,0.592,0.74,1.128c0.148,0.538,0.156,1.075,0.023,1.612
		c-0.031,0.215-0.344,1.908-0.938,5.078c-0.492,2.688-0.986,4.944-1.48,6.771c-0.725,2.633-1.547,4.594-2.469,5.884
		c-1.283,1.826-2.697,2.391-4.244,1.692c-1.646-0.753-2.781-2.552-3.406-5.4c-0.1-0.375-0.182-0.806-0.246-1.289
		c-0.266,0.753-0.545,1.424-0.84,2.015c-1.021,2.257-2.09,3.653-3.209,4.191c-1.547,0.752-2.945-0.08-4.195-2.499
		c-0.922-1.772-1.334-4.485-1.234-8.141c0.098-3.115,0.543-6.287,1.332-9.511c0.855-3.492,1.926-6.072,3.209-7.738
		c1.744-2.148,3.555-2.39,5.43-0.726c1.053,1.021,1.729,2.069,2.023,3.144c0.1,0.484,0.182,1.076,0.248,1.773V50.351z
		 M285.261,52.688c-0.033-0.375-0.082-1.048-0.148-2.015c-0.033-0.375-0.066-0.617-0.098-0.726c0.031-0.107-0.232-0.403-0.791-0.887
		c-0.855-0.806-1.695-0.697-2.518,0.322c-0.922,1.183-1.711,3.144-2.369,5.885c-0.691,2.688-1.07,5.4-1.135,8.141
		c-0.066,2.526,0.148,4.245,0.641,5.158c0.494,0.914,0.955,1.264,1.383,1.048c0.525-0.269,1.135-1.154,1.826-2.66
		c0.625-1.342,1.201-2.954,1.729-4.836c0.525-1.826,0.889-3.305,1.086-4.433c0.031-0.215,0.064-0.403,0.098-0.564v-0.564
		c0.1-1.396,0.197-2.525,0.297-3.385c0-0.161,0.016-0.295,0.049-0.403C285.31,52.716,285.292,52.688,285.261,52.688z"/>
	<path fill="#4E615F" d="M305.597,51.479c1.086-3.331,2.469-5.48,4.146-6.448c1.217-0.645,2.287-0.429,3.209,0.646
		c0.822,0.967,1.332,2.392,1.529,4.271c0.1,0.645,0.156,1.479,0.174,2.499c0.016,1.021,0.008,1.881-0.025,2.579l-0.148,3.224
		c-0.066,1.506-0.098,2.446-0.098,2.821c-0.1,2.312-0.115,4.111-0.051,5.4c0.066,1.505,0.23,2.526,0.494,3.063
		c0.23,0.537,0.51,0.753,0.84,0.645c0.525-0.214,1.15-0.859,1.875-1.935c0.691-0.967,1.35-2.122,1.975-3.466
		c0.625-1.343,1.053-2.418,1.283-3.225c0.691-2.418,1.137-4.889,1.334-7.415c0.064-0.591,0.238-1.074,0.518-1.451
		c0.279-0.375,0.6-0.523,0.963-0.443c0.361,0.081,0.658,0.351,0.889,0.807c0.23,0.457,0.328,0.98,0.297,1.571
		c-0.232,2.956-0.775,5.912-1.629,8.866c-0.297,1.021-0.809,2.338-1.531,3.95c-0.725,1.559-1.498,2.929-2.32,4.11
		c-1.086,1.558-2.123,2.525-3.109,2.901c-1.449,0.484-2.633-0.296-3.555-2.337c-0.527-1.235-0.855-2.982-0.986-5.239
		c-0.066-1.504-0.051-3.519,0.049-6.045c0.033-0.646,0.074-1.652,0.123-3.023c0.049-1.37,0.09-2.363,0.123-2.981
		c0.033-0.617,0.041-1.33,0.025-2.137c-0.018-0.806-0.041-1.45-0.074-1.935c-0.1-0.751-0.264-1.262-0.494-1.531
		c-0.197-0.214-0.461-0.214-0.789,0c-1.48,0.807-2.715,3.466-3.703,7.979c-0.264,1.237-0.502,2.526-0.715,3.869
		c-0.215,1.344-0.42,2.861-0.617,4.555c-0.197,1.692-0.338,2.794-0.42,3.305s-0.156,0.846-0.223,1.007
		c-0.033,0.161-0.066,0.296-0.098,0.403c-0.166,0.377-0.379,0.645-0.643,0.806c-0.328,0.216-0.641,0.216-0.938,0
		c-0.264-0.161-0.477-0.429-0.641-0.806c-0.1-0.269-0.166-0.536-0.199-0.806c-0.033-0.215-0.049-0.456-0.049-0.726l0.197-2.257
		c0.297-3.6,0.445-5.481,0.445-5.643c0.164-2.418,0.197-4.594,0.098-6.528c-0.131-2.525-0.443-4.244-0.938-5.159
		c-0.164,0.055-0.379,0.081-0.643,0.081c-1.119,0.161-2.121,1.479-3.01,3.949c-0.561,1.666-1.004,3.601-1.334,5.804
		c-0.197,3.171-0.477,7.04-0.838,11.606c-0.033,0.216-0.051,0.377-0.051,0.483c-0.033,0.216-0.066,0.417-0.098,0.604
		c-0.033,0.189-0.082,0.363-0.148,0.524c-0.066,0.108-0.141,0.215-0.223,0.322s-0.264,0.269-0.543,0.483
		c-0.279,0.214-0.551,0.188-0.814-0.08c-0.197-0.108-0.361-0.282-0.492-0.524c-0.133-0.241-0.215-0.43-0.248-0.564
		c-0.033-0.133-0.049-0.228-0.049-0.281c-0.033-0.107-0.049-0.242-0.049-0.403v-0.403v-0.322c0.031-0.591,0.082-1.531,0.146-2.821
		c0.23-3.385,0.412-5.884,0.543-7.496c0.066-0.591,0.148-1.209,0.248-1.854c0.164-3.062,0.264-5.937,0.295-8.624
		c0-0.591,0.133-1.089,0.396-1.491c0.262-0.403,0.592-0.604,0.986-0.604c0.461,0,0.807,0.322,1.037,0.967
		c1.186-2.203,2.533-3.412,4.047-3.627c1.285-0.161,2.223,0.296,2.814,1.37C304.823,47.557,305.3,49.276,305.597,51.479z"/>
</g>
<g>
	<circle fill="none" cx="49.683" cy="56.14" r="23.819"/>
	<path fill="#60C2CD" d="M10.288,24.993c0.13-0.17,0.262-0.339,0.401-0.501C10.55,24.654,10.418,24.823,10.288,24.993z"/>
	<path fill="#60C2CD" d="M8.562,28.38c0.044-0.149,0.096-0.294,0.146-0.44C8.658,28.086,8.606,28.231,8.562,28.38z"/>
	<path fill="#60C2CD" d="M9.289,26.575c0.082-0.158,0.167-0.314,0.255-0.468C9.455,26.261,9.37,26.417,9.289,26.575z"/>
	<path fill="#60C2CD" d="M10.853,24.312c0.166-0.183,0.334-0.364,0.512-0.536C11.187,23.948,11.019,24.128,10.853,24.312z"/>
	<path fill="#60C2CD" d="M8.886,27.454c0.062-0.154,0.13-0.306,0.199-0.457C9.016,27.148,8.948,27.299,8.886,27.454z"/>
	<path fill="#60C2CD" d="M9.76,25.752c0.103-0.164,0.209-0.325,0.321-0.482C9.969,25.428,9.863,25.589,9.76,25.752z"/>
	<path fill="#60C2CD" d="M11.408,23.737c1.554-1.478,3.555-2.49,5.781-2.811C14.962,21.248,12.961,22.255,11.408,23.737z"/>
	<path fill="#60C2CD" d="M8.173,30.356c0.012-0.118,0.033-0.232,0.049-0.349C8.207,30.124,8.185,30.238,8.173,30.356z"/>
	<path fill="#60C2CD" d="M8.322,29.35c0.027-0.139,0.064-0.274,0.097-0.412C8.386,29.075,8.35,29.21,8.322,29.35z"/>
	<circle fill="#60C2CD" cx="49.683" cy="56.14" r="23.819"/>
	<path fill="#4E615F" d="M8.419,28.938c0.044-0.187,0.089-0.375,0.143-0.558C8.508,28.563,8.463,28.75,8.419,28.938z"/>
	<path fill="#4E615F" d="M8.121,31.393c0-0.35,0.019-0.695,0.052-1.037C8.14,30.697,8.121,31.042,8.121,31.393z"/>
	<path fill="#4E615F" d="M9.085,26.998c0.065-0.143,0.132-0.284,0.204-0.422C9.217,26.714,9.15,26.855,9.085,26.998z"/>
	<path fill="#4E615F" d="M8.708,27.94c0.056-0.163,0.114-0.326,0.178-0.486C8.822,27.614,8.765,27.776,8.708,27.94z"/>
	<path fill="#4E615F" d="M8.222,30.007c0.029-0.221,0.058-0.441,0.1-0.658C8.28,29.566,8.251,29.787,8.222,30.007z"/>
	<rect x="43.604" y="14.966" fill="#4E615F" width="12.154" height="6.271"/>
	<path fill="#4E615F" d="M10.081,25.271c0.067-0.094,0.137-0.186,0.208-0.277C10.218,25.085,10.147,25.177,10.081,25.271z"/>
	<path fill="#4E615F" d="M9.544,26.107c0.069-0.12,0.142-0.238,0.216-0.355C9.686,25.869,9.613,25.987,9.544,26.107z"/>
	<path fill="#4E615F" d="M10.689,24.492c0.053-0.061,0.109-0.12,0.164-0.18C10.799,24.372,10.743,24.431,10.689,24.492z"/>
	<path fill="#4E615F" d="M11.365,23.776c0.014-0.014,0.029-0.026,0.043-0.039C11.394,23.75,11.379,23.763,11.365,23.776z"/>
	<path fill="#4E615F" d="M80.655,20.806H71.12l-3.928-8.118c-0.508-1.065-1.594-1.746-2.772-1.746H34.691
		c-1.184,0-2.267,0.681-2.781,1.746l-3.927,8.118H26.76V20.49c0-0.784-0.636-1.423-1.419-1.423h-6.731
		c-0.784,0-1.42,0.639-1.42,1.423v0.437c-2.226,0.32-4.228,1.333-5.781,2.811c-0.014,0.013-0.029,0.025-0.043,0.039
		c-0.178,0.171-0.346,0.353-0.512,0.536c-0.054,0.06-0.11,0.119-0.164,0.18c-0.14,0.162-0.271,0.332-0.401,0.501
		c-0.07,0.092-0.141,0.183-0.208,0.277c-0.112,0.157-0.218,0.318-0.321,0.482c-0.074,0.117-0.146,0.235-0.216,0.355
		c-0.089,0.153-0.174,0.31-0.255,0.468c-0.071,0.139-0.138,0.28-0.204,0.422c-0.069,0.15-0.137,0.302-0.199,0.457
		c-0.064,0.16-0.122,0.323-0.178,0.486c-0.051,0.146-0.102,0.292-0.146,0.44c-0.054,0.183-0.099,0.371-0.143,0.558
		C8.386,29.075,8.35,29.21,8.322,29.35c-0.042,0.216-0.071,0.437-0.1,0.658c-0.016,0.117-0.037,0.231-0.049,0.349
		c-0.033,0.341-0.052,0.687-0.052,1.037h83.12C91.241,25.546,86.502,20.806,80.655,20.806z"/>
	<path fill="#60C2CD" d="M8.121,31.393v36.837h21.064c4.144,7.012,11.762,11.729,20.497,11.729s16.353-4.718,20.496-11.729h21.062
		V31.393H8.121z"/>
	<path fill="#4E615F" d="M49.683,79.959c-8.735,0-16.354-4.718-20.497-11.729H8.121c0,5.846,4.739,10.586,10.586,10.586h12.142
		c4.957,4.557,11.569,7.341,18.834,7.341c7.262,0,13.873-2.784,18.831-7.341h12.142c5.847,0,10.586-4.74,10.586-10.586H70.179
		C66.035,75.241,58.418,79.959,49.683,79.959z"/>
	<g>
		<line fill="#F4ECE5" x1="8.121" y1="31.393" x2="8.121" y2="68.229"/>
	</g>
	<g>
		<g>
			<path fill="#F4ECE5" d="M49.682,32.412c-13.286,0-24.056,10.771-24.056,24.055c0,13.285,10.77,24.055,24.056,24.055
				c13.285,0,24.055-10.77,24.055-24.055C73.736,43.183,62.967,32.412,49.682,32.412z"/>
		</g>
		<g>
			<path fill="#FDB813" d="M49.682,33.412c-12.713,0-23.056,10.342-23.056,23.055c0,12.712,10.343,23.055,23.056,23.055
				c12.712,0,23.055-10.343,23.055-23.055C72.736,43.754,62.394,33.412,49.682,33.412z"/>
			<path fill="#FFFFFF" d="M49.682,31.412c-13.816,0-25.056,11.239-25.056,25.055s11.24,25.055,25.056,25.055
				c13.815,0,25.055-11.239,25.055-25.055S63.497,31.412,49.682,31.412z M49.682,79.521c-12.713,0-23.056-10.343-23.056-23.055
				c0-12.712,10.343-23.055,23.056-23.055c12.712,0,23.055,10.342,23.055,23.055C72.736,69.179,62.394,79.521,49.682,79.521z"/>
		</g>
		<g>
			<path fill="#EAE968" d="M38.714,12.087c-0.443,1.553-1.666,2.776-3.221,3.221c1.553,0.443,2.776,1.666,3.221,3.218
				c0.443-1.552,1.667-2.774,3.219-3.219C40.38,14.862,39.157,13.639,38.714,12.087z"/>
		</g>
		<g>
			<path fill="#EAE968" d="M60.765,27.13c-0.201,0.701-0.755,1.255-1.456,1.456c0.701,0.199,1.255,0.753,1.456,1.454
				c0.201-0.701,0.753-1.255,1.455-1.455C61.518,28.385,60.966,27.831,60.765,27.13z"/>
		</g>
		<g>
			<path fill="#EAE968" d="M57.953,11.852c-0.201,0.701-0.754,1.254-1.456,1.455c0.702,0.2,1.255,0.753,1.456,1.454
				c0.2-0.701,0.753-1.254,1.454-1.455C58.706,13.105,58.153,12.553,57.953,11.852z"/>
		</g>
		<g>
			<path fill="#EAE968" d="M38.973,26.803c-0.202,0.701-0.754,1.254-1.456,1.455c0.702,0.2,1.254,0.753,1.456,1.455
				c0.2-0.702,0.753-1.255,1.454-1.455C39.726,28.057,39.173,27.504,38.973,26.803z"/>
		</g>
		<g>
			<g>
				<path fill="#FFFFFF" d="M56.075,15.025H43.618l-8.125,7.937l10.305,9.79c0.512-0.109,1.03-0.194,1.556-0.261l-9.39-8.997h7.026
					l3.168,8.914c0.365-0.029,0.732-0.049,1.104-0.057l-3.074-8.857h7.742l-3.646,8.861c0.331,0.011,0.659,0.03,0.986,0.058
					l3.875-8.919h6.254l-9.409,8.995c0.532,0.066,1.057,0.152,1.573,0.263l10.305-9.79L56.075,15.025z M37.66,22.421l5.772-5.326
					l4.557,5.326H37.66z M44.781,16.523h9.364l-4.848,5.286L44.781,16.523z M50.527,22.421l5.165-5.62l5.93,5.62H50.527z"/>
			</g>
		</g>
	</g>
	<g>
		<path fill="#4E615F" d="M32.495,50.369c0.07-0.577,0.234-1.314,0.491-2.21c0.256-0.896,0.553-1.705,0.889-2.427
			c0.442-0.954,0.902-1.589,1.38-1.907c0.708-0.462,1.371-0.288,1.991,0.52c0.142,0.174,0.256,0.449,0.345,0.824
			c0.07,0.231,0.133,0.506,0.186,0.823c0.106,0.578,0.213,1.358,0.319,2.34c0.159,1.59,0.318,3.699,0.478,6.328
			c0.266,4.623,0.415,8.162,0.451,10.617v0.174v0.434v0.39v0.391l0.876-3.424c0.513-1.965,0.92-3.452,1.221-4.464
			c0.212-0.665,0.389-1.185,0.531-1.561c0.105-0.23,0.203-0.419,0.291-0.563c0.23-0.347,0.487-0.491,0.771-0.434
			c0.212,0.087,0.397,0.304,0.557,0.65c0.089,0.145,0.168,0.347,0.239,0.606c0.124,0.376,0.256,0.91,0.398,1.604
			c0.105,0.434,0.406,1.907,0.902,4.421c0.389,1.965,0.698,3.381,0.929,4.247c0.089-0.577,0.194-1.357,0.318-2.34
			c0.089-0.636,0.186-1.401,0.292-2.297l0.266-2.341c0.07-0.635,0.133-1.098,0.186-1.387c1.15-7.31,2.973-13.103,5.468-17.379
			c0.142-0.23,0.314-0.347,0.518-0.347s0.376,0.108,0.518,0.325s0.213,0.491,0.213,0.823s-0.062,0.614-0.187,0.845
			c-2.335,3.987-4.052,9.434-5.148,16.339l-0.187,1.344c-0.07,0.606-0.155,1.358-0.252,2.254c-0.098,0.896-0.19,1.646-0.278,2.253
			c-0.178,1.416-0.328,2.5-0.451,3.251c-0.089,0.491-0.178,0.882-0.266,1.17c-0.071,0.202-0.142,0.376-0.213,0.521
			c-0.159,0.317-0.354,0.49-0.583,0.52c-0.248,0.028-0.479-0.102-0.69-0.39c-0.124-0.174-0.239-0.391-0.345-0.65
			c-0.16-0.375-0.328-0.91-0.505-1.604c-0.23-0.924-0.549-2.397-0.955-4.421c-0.479-2.427-0.771-3.885-0.876-4.377l-0.08-0.304
			l-0.079,0.261c-0.302,0.982-0.699,2.427-1.194,4.334l-1.142,4.42l-0.372,1.474c-0.07,0.203-0.124,0.361-0.159,0.477
			c-0.018,0.087-0.044,0.159-0.079,0.217c-0.018,0.087-0.045,0.159-0.08,0.217c-0.124,0.174-0.266,0.289-0.425,0.347
			c-0.336,0.058-0.619-0.115-0.849-0.52c-0.124-0.231-0.23-0.534-0.318-0.91c-0.089-0.462-0.151-1.069-0.187-1.82
			c-0.018-0.521-0.026-1.112-0.026-1.777v-0.39v-0.347v-0.174c-0.035-2.427-0.186-5.922-0.451-10.487
			c-0.159-2.571-0.318-4.638-0.478-6.198c-0.089-0.866-0.177-1.545-0.266-2.036c-0.035-0.231-0.071-0.404-0.106-0.521v-0.043
			c-0.159-0.174-0.318-0.202-0.478-0.087c-0.248,0.145-0.514,0.535-0.796,1.17c-0.283,0.578-0.527,1.235-0.73,1.972
			c-0.203,0.737-0.341,1.322-0.411,1.756c-0.035,0.318-0.138,0.563-0.306,0.736c-0.168,0.174-0.35,0.225-0.544,0.151
			c-0.194-0.071-0.345-0.245-0.451-0.52C32.469,50.983,32.441,50.688,32.495,50.369z"/>
		<path fill="#4E615F" d="M55.931,61.551c0.991-1.762,2.406-2.601,4.247-2.514c0.389,0.029,1.105,0.13,2.15,0.304
			c0.849,0.173,1.494,0.245,1.938,0.216c0.194,0,0.366,0.108,0.518,0.325c0.149,0.217,0.226,0.484,0.226,0.802
			c0,0.318-0.066,0.601-0.199,0.846s-0.297,0.368-0.491,0.368c-0.496,0.029-1.124-0.028-1.885-0.174
			c-1.026,3.468-2.123,5.909-3.291,7.324c-1.009,1.214-2.105,1.705-3.291,1.474c-1.894-0.375-3.177-1.878-3.849-4.507
			c-0.496-1.936-0.628-4.392-0.398-7.367c0.106-1.416,0.372-3.077,0.797-4.984c0.406-1.878,0.911-3.669,1.513-5.374
			c1.628-4.479,3.415-6.674,5.361-6.588c0.654,0.029,1.208,0.391,1.659,1.084s0.773,1.517,0.969,2.47
			c0.123,0.579,0.221,1.222,0.292,1.929c0.07,0.709,0.11,1.365,0.119,1.973c0.009,0.606,0.014,1.242,0.014,1.906v1.69
			c0,0.318-0.066,0.6-0.199,0.845c-0.133,0.246-0.297,0.369-0.491,0.369c-0.195,0-0.367-0.108-0.518-0.325s-0.226-0.483-0.226-0.802
			c0-0.607-0.005-1.228-0.014-1.864c-0.009-0.635-0.013-1.22-0.013-1.755c0-0.534-0.026-1.083-0.08-1.646
			c-0.053-0.563-0.124-1.076-0.212-1.539c-0.283-1.3-0.734-1.964-1.354-1.993c-0.69-0.028-1.385,0.434-2.084,1.387
			s-1.367,2.312-2.004,4.074c-0.549,1.531-1.018,3.178-1.406,4.94c-0.372,1.763-0.603,3.25-0.69,4.464
			c-0.195,2.601-0.098,4.666,0.292,6.197c0.46,1.792,1.354,2.817,2.681,3.077c0.813,0.173,1.574-0.174,2.282-1.04
			c0.92-1.098,1.796-2.99,2.628-5.678c-0.283-0.058-0.549-0.087-0.796-0.087c-1.398-0.086-2.442,0.492-3.132,1.734
			c-0.143,0.231-0.311,0.361-0.505,0.39c-0.194,0.029-0.362-0.072-0.504-0.304c-0.142-0.23-0.222-0.505-0.239-0.823
			C55.728,62.057,55.789,61.782,55.931,61.551z"/>
	</g>
</g>
</svg>
